<svg xmlns="http://www.w3.org/2000/svg" viewBox="0 0 434.3 267.4"><defs><style>.cls-1{fill:#fff;}</style></defs><g id="Layer_2" data-name="Layer 2"><g id="Layer_1-2" data-name="Layer 1"><path class="cls-1" d="M171.68,267.4H0V0H.62C.52,1.54.4,3.09.33,4.64c0,.21.22.44.34.66.2-.16.49-.29.57-.5A2,2,0,0,1,2.79,3.43c.28-.06.45-.59.66-.91a4.88,4.88,0,0,0-1-.49,6.56,6.56,0,0,0-1.26-.12v-.5L3.73,1.1,3.54,0H390.18c-.84,1.65.14,2.4,1.52,2.81l-.35,1.49.23.16a11,11,0,0,1,1-.92c.25-.17.7-.37.87-.27,1.06.67,2.06,1.42,3.36,2.33.81.09-.22-2,1.29-1.7a5.41,5.41,0,0,0-.62,1.29c-.16.89-.47,1.45-1.49,1.06-.15,1,.77,1.5,2.3,1.43-.07-.88-.07-.88,1-1.28a2,2,0,0,1,2.89,1.24c.06.15.23.26.31.41a5.66,5.66,0,0,1,.6,1.27c.12.48,0,1,.13,1.5,0,.21.28.55.43.55,1.4,0,1.89,1,2.4,2.09.79,1.71,1.54,2,3.07,1.37.63-.25,1.22-.39,1.67.25a2.18,2.18,0,0,1-.48,2.23,2.31,2.31,0,0,0-.47.6s.14.22.18.21c.25-.07.58-.12.7-.29.77-1.09,1.48-2.21,2.22-3.31a1.73,1.73,0,0,1,.36-.28c.14.22.23.39.34.55l.61.93a9.12,9.12,0,0,1,.68-.92,5.43,5.43,0,0,1,.82-.57,6.76,6.76,0,0,1,.56,1c0,.14-.11.39-.22.56a1.83,1.83,0,0,0,0,2.24,5.75,5.75,0,0,0,3.19,2.46c.25.05.38.65.56,1a3.2,3.2,0,0,1-.87.43c-.52.09-1.09,0-1.6.12-.29.07-.7.43-.7.66a1.06,1.06,0,0,0,.61.78c.68.23,1.42.29,2.12.48.3.09.74.27.8.5.22.75.66.58,1.21.54,1-.07,2,0,3.1,0-.43,1.39-.31,1.54.9,1.87.3.08.78.47.75.65-.12.88.49.93,1,1,1.73.1,2,.28,2.4,2h.58c1.38-.08,1.79.44,1.41,1.74-.15.53-.18,1.09-.33,1.62-.24.87.16,1.24,1,1.31.57.06,1.16,0,1.14.88a4.45,4.45,0,0,0,.9.2V267.4H246.59c1-.57,1.08-1.65,1.3-2.6a22.6,22.6,0,0,0,.77-8.11c-.44-3.3-1.62-6.56-.72-10a1.77,1.77,0,0,0,0-.72c-.87-5.09-.62-10.23-.61-15.36a5.41,5.41,0,0,1,.5-2.72,32,32,0,0,0,3.41-8.54,5.8,5.8,0,0,0,.25-1.43,2.2,2.2,0,0,0-3.09-2.23c-.34.12-.7.19-1.25.33-.12-1.06-.21-2-.32-2.88-.14-1.24-.12-2.67-1.25-3.39a2,2,0,0,1-1-2.26c.11-.85.38-1.68.52-2.54a4.54,4.54,0,0,0,.05-1.47,23.4,23.4,0,0,1-.66-3.54c0-2.77-1.27-5.37-1-8.16,0-.22-.16-.46-.23-.69-.17-.67-.37-1.33-.49-2-.61-3.34-1.12-6.69-1.82-10-.78-3.69-1.87-7.28-5-9.77a2.71,2.71,0,0,1-1.11-2.76c0-.26-.15-.56-.23-.83l.17-.25a6.38,6.38,0,0,0,1.3.81,5.6,5.6,0,0,0,1.43.14c-1.11-1-1.11-1,0-2.25-.34-.13-.62-.27-.92-.37s-.83-.23-1.24-.35a5.07,5.07,0,0,1,.46-1.06c.42-.57.41-.87-.16-1.45-.74-.75-1.33-.27-2,0l-.31-.41,1.29-.35c-.68-.44-1-.62-1.29-.85s-.59-.4-.59-.61c0-1.15-.68-1.61-1.68-1.82-.15,0-.28-.22-.51-.42l1-.16a5.44,5.44,0,0,1-1.12-3.62,2.65,2.65,0,0,0-.27-1.39c-.46-.69-.27-1.39.67-1.74l.16,1,1.26-1.47-.74-.22c.31-.71.58-1.33.92-2.09-1,.06-1.44-.16-1.24-1a1.79,1.79,0,0,0-.83-2.19,1.69,1.69,0,0,1-.63-2c.08-.26.28-.51.28-.77a10.39,10.39,0,0,0-.11-2,4.39,4.39,0,0,0-.46-1.08c-.94.45-.94.45-1.44-.2a3.5,3.5,0,0,1-.14-2.75s.11-.07.34-.2l1.56,1.79c.18.21.32.54.54.6.8.22,1.62.36,2.44.52a16.08,16.08,0,0,1-4.46-3.25c-.17-.15-.44-.33-.45-.5,0-1.06-.9-1.24-1.62-1.63-.44-.24-1.06-.67-1.09-1.05a5.17,5.17,0,0,0-1.08-2.29.8.8,0,0,0-1.08-.4c-1,.29-1.53-.16-1.64-1.37a4.58,4.58,0,0,0,1.16.4c.27,0,.56-.24.84-.37,1-.06,1.85.08,2.24,1.24.12.37.59.68,1,.9a2.21,2.21,0,0,1,1.13,1.74c.1.79.29.87.84.79L227,128.57c-.89.39-1.2-.35-1.47-.82-.84-1.42-.92-1.48-2.33-.65-.7-.19-1.68.26-2-.86s-1.37-1.77-2.26-2.36c-.3.15-.65.28-.82.16-.72-.5-1.36-1.12-2.09-1.61a13.85,13.85,0,0,0-2.48-1.35,20.06,20.06,0,0,0-2.49-.58,2.7,2.7,0,0,0-2.66.26,1.26,1.26,0,0,1-1,.16,5,5,0,0,0-4.12,1.31,17.77,17.77,0,0,0-2.84,2.4,3.6,3.6,0,0,0-1,2.54,1.85,1.85,0,0,1-.63,2.06,10.51,10.51,0,0,0-3.41,6.12,2.82,2.82,0,0,1-.19.48c-.81,2-1.62,3.95-2.41,5.93,0,.08,0,.19.07.38l.79-.44.26.15-1,2.87-.29,0-.16-1.9c-.11,1,0,2-.15,2.89-.25,1.33-.69,2.62.23,3.85.47.62.87,1.5,1.5,1.75,1.37.52,1.73,1.56,2.06,2.76.14.51.05.78-.49,1-1.36.66-1.33.7-2.21-.46-.33-.44-.76-.82-1.07-1.27a43.07,43.07,0,0,1-2.87-4.4c-.87-1.68-.85-3.72-2-5.33a3.72,3.72,0,0,1-.38-1.49c-.28-1.67-.52-3.34-.84-5-.15-.74-.5-1.44-.71-2.17-1.08-3.9-2-7.84-3.24-11.7-1-3.3-2.32-6.52-3.51-9.77-.24-.63-.32-1.06.45-1.42a1.38,1.38,0,0,0,.3-1.29c-1.16-2.54-2.42-5-3.65-7.54a4.53,4.53,0,0,1-.61-1.17c-.51-3.43-1-6.85-1.41-10.29-.1-.82.38-1.81.08-2.48a2.86,2.86,0,0,1,.5-3.06c.83-1.28,1.73-2.52,2.52-3.82a2,2,0,0,0,.28-1.44,34.91,34.91,0,0,0-2-5,2.83,2.83,0,0,0-2-1.47,13.4,13.4,0,0,0-4.21.87,29.81,29.81,0,0,0-3.62,1.81c-.84.42-1.94.76-1.93,1.82a37.21,37.21,0,0,0,.5,5.87c.32,2,1.11,3.9,1.33,5.89.51,4.68.81,9.39,1.16,14.09a3,3,0,0,1-.32,1.16c-.39,1.09-.79,2.18-1.19,3.27a5.49,5.49,0,0,1-.37.9,22.69,22.69,0,0,0-1.47,2.24,5,5,0,0,0-.14,1.71c.64-.14,1.28-.27,1.91-.45.14,0,.23-.26.37-.35.33-.19.67-.35,1-.53a4.62,4.62,0,0,1,.38,1c.23,2,.32,4,.65,6,.43,2.57,1,5.07.16,7.69-.53,1.65.45,3.16.85,4.73,1.87,7.38,3.7,14.77,5.55,22.16.15.57.32,1.14.52,1.69,1.06,3,2.14,6.07,3.21,9.11a50.87,50.87,0,0,1,1.8,5.3c.79,3.39,1.21,6.88,2.1,10.25a20.43,20.43,0,0,1,.1,10.75c-.47,1.77-1,3.53-1.42,5.32-.55,2.28-1.39,4.52-1.1,6.93a1.62,1.62,0,0,1-.18.8,10,10,0,0,0-.56,5.1,28.23,28.23,0,0,1,.05,5.28c-.26,2.22-.83,4.4-1.28,6.6-.37,1.77-.36,1.8,1.24,2.75.28.17.68.55.65.79a8.74,8.74,0,0,1-.55,2.49c-.44,1.06-1.07,2-1.61,3.05,0,.07,0,.19.07.3l.73-.26a6.74,6.74,0,0,1,0,1.2c-.39,1.85-.76,3.71-1.23,5.54a41.25,41.25,0,0,1-1.89,6.45,41.34,41.34,0,0,0-3.2,18.06C171.49,263.74,171.6,265.57,171.68,267.4ZM399.39,9.6c1.54,0,1.77-.16,1.88-1.48,0-.31-.28-.65-.43-1-.41.22-1,.34-1.18.69A5.53,5.53,0,0,0,399.39,9.6Zm-162.22,159c.27-.11.94-.17,1.16-.52.66-1,.61-1.3.33-1.65Zm-4.78-25.7.09-.86-1.56-.13,0,.29ZM416.07,21.28l.29-.18a2.46,2.46,0,0,0-.36-.84c-.08-.09-.46.09-1,.21ZM420.63,26c-.3-.23-.51-.5-.63-.46s-.37.31-.55.48c.17.13.34.33.51.34S420.32,26.18,420.63,26Z"/><path d="M223.22,127.07c-.28.13-.57.39-.84.37a4.58,4.58,0,0,1-1.16-.4c.11,1.21.65,1.66,1.64,1.37a.8.8,0,0,1,1.08.4A5.17,5.17,0,0,1,225,131.1c0,.38.65.81,1.09,1.05.72.39,1.57.57,1.62,1.63,0,.17.28.35.45.5a16.08,16.08,0,0,0,4.46,3.25c-.82-.16-1.64-.3-2.44-.52-.22-.06-.36-.39-.54-.6l-1.56-1.79c-.23.13-.31.15-.34.2a3.5,3.5,0,0,0,.14,2.75c.5.65.5.65,1.44.2a4.39,4.39,0,0,1,.46,1.08,10.39,10.39,0,0,1,.11,2c0,.26-.2.51-.28.77a1.69,1.69,0,0,0,.63,2,1.79,1.79,0,0,1,.83,2.19c-.2.82.29,1,1.24,1-.34.76-.61,1.38-.92,2.09l.74.22-1.26,1.47-.16-1c-.94.35-1.13,1-.67,1.74a2.65,2.65,0,0,1,.27,1.39,5.44,5.44,0,0,0,1.12,3.62l-1,.16c.23.2.36.39.51.42,1,.21,1.67.67,1.68,1.82,0,.21.36.44.59.61s.61.41,1.29.85l-1.29.35.31.41c.69-.23,1.28-.71,2,0,.57.58.58.88.16,1.45a5.07,5.07,0,0,0-.46,1.06c.41.12.83.22,1.24.35s.58.24.92.37c-1.08,1.25-1.08,1.25,0,2.25a5.6,5.6,0,0,1-1.43-.14,6.38,6.38,0,0,1-1.3-.81l-.17.25c.08.27.27.57.23.83a2.71,2.71,0,0,0,1.11,2.76c3.14,2.49,4.23,6.08,5,9.77.7,3.32,1.21,6.67,1.82,10,.12.68.32,1.34.49,2,.07.23.25.47.23.69-.3,2.79,1,5.39,1,8.16a23.4,23.4,0,0,0,.66,3.54,4.54,4.54,0,0,1-.05,1.47c-.14.86-.41,1.69-.52,2.54a2,2,0,0,0,1,2.26c1.13.72,1.11,2.15,1.25,3.39.11.91.2,1.82.32,2.88.55-.14.91-.21,1.25-.33a2.2,2.2,0,0,1,3.09,2.23,5.8,5.8,0,0,1-.25,1.43,32,32,0,0,1-3.41,8.54,5.41,5.41,0,0,0-.5,2.72c0,5.13-.26,10.27.61,15.36a1.77,1.77,0,0,1,0,.72c-.9,3.41.28,6.67.72,10a22.6,22.6,0,0,1-.77,8.11c-.22.95-.28,2-1.3,2.6H171.68c-.08-1.83-.19-3.66-.24-5.5a41.34,41.34,0,0,1,3.2-18.06,41.25,41.25,0,0,0,1.89-6.45c.47-1.83.84-3.69,1.23-5.54a6.74,6.74,0,0,0,0-1.2l-.73.26c0-.11-.1-.23-.07-.3.54-1,1.17-2,1.61-3.05a8.74,8.74,0,0,0,.55-2.49c0-.24-.37-.62-.65-.79-1.6-.95-1.61-1-1.24-2.75.45-2.2,1-4.38,1.28-6.6a28.23,28.23,0,0,0-.05-5.28,10,10,0,0,1,.56-5.1,1.62,1.62,0,0,0,.18-.8c-.29-2.41.55-4.65,1.1-6.93.42-1.79.95-3.55,1.42-5.32a20.43,20.43,0,0,0-.1-10.75c-.89-3.37-1.31-6.86-2.1-10.25a50.87,50.87,0,0,0-1.8-5.3c-1.07-3-2.15-6.07-3.21-9.11-.2-.55-.37-1.12-.52-1.69-1.85-7.39-3.68-14.78-5.55-22.16-.4-1.57-1.38-3.08-.85-4.73.83-2.62.27-5.12-.16-7.69-.33-2-.42-4-.65-6a4.62,4.62,0,0,0-.38-1c-.34.18-.68.34-1,.53-.14.09-.23.31-.37.35-.63.18-1.27.31-1.91.45a5,5,0,0,1,.14-1.71,22.69,22.69,0,0,1,1.47-2.24,5.49,5.49,0,0,0,.37-.9c.4-1.09.8-2.18,1.19-3.27a3,3,0,0,0,.32-1.16c-.35-4.7-.65-9.41-1.16-14.09-.22-2-1-3.91-1.33-5.89a37.21,37.21,0,0,1-.5-5.87c0-1.06,1.09-1.4,1.93-1.82a29.81,29.81,0,0,1,3.62-1.81,13.4,13.4,0,0,1,4.21-.87,2.83,2.83,0,0,1,2,1.47,34.91,34.91,0,0,1,2,5,2,2,0,0,1-.28,1.44c-.79,1.3-1.69,2.54-2.52,3.82a2.86,2.86,0,0,0-.5,3.06c.3.67-.18,1.66-.08,2.48.41,3.44.9,6.86,1.41,10.29a4.53,4.53,0,0,0,.61,1.17c1.23,2.51,2.49,5,3.65,7.54a1.38,1.38,0,0,1-.3,1.29c-.77.36-.69.79-.45,1.42,1.19,3.25,2.48,6.47,3.51,9.77,1.2,3.86,2.16,7.8,3.24,11.7.21.73.56,1.43.71,2.17.32,1.66.56,3.33.84,5a3.72,3.72,0,0,0,.38,1.49c1.18,1.61,1.16,3.65,2,5.33a43.07,43.07,0,0,0,2.87,4.4c.31.45.74.83,1.07,1.27.88,1.16.85,1.12,2.21.46.54-.26.63-.53.49-1-.33-1.2-.69-2.24-2.06-2.76-.63-.25-1-1.13-1.5-1.75-.92-1.23-.48-2.52-.23-3.85.18-.93,0-1.92.15-2.89l.16,1.9.29,0,1-2.87-.26-.15-.79.44c0-.19-.1-.3-.07-.38.79-2,1.6-3.95,2.41-5.93a2.82,2.82,0,0,0,.19-.48,10.51,10.51,0,0,1,3.41-6.12,1.85,1.85,0,0,0,.63-2.06,3.6,3.6,0,0,1,1-2.54,17.77,17.77,0,0,1,2.84-2.4,5,5,0,0,1,4.12-1.31,1.26,1.26,0,0,0,1-.16,2.7,2.7,0,0,1,2.66-.26,20.06,20.06,0,0,1,2.49.58,13.85,13.85,0,0,1,2.48,1.35c.73.49,1.37,1.11,2.09,1.61.17.12.52,0,.82-.16.89.59,1.95,1.11,2.26,2.36s1.26.67,2,.86Zm8.92,101.41c.16,1,.31,2,.49,3,0,.15.24.25.32.4a2.41,2.41,0,0,1,.3.75c.31,3,1.5,5.75,2.4,8.58.76,2.37,1.7,4.67,2.51,7,.31.88.5,1.8.81,3,.49-.81.82-1.33,1.12-1.86a7.74,7.74,0,0,0,.83-6.11c-.79-2.9-1.72-5.77-2.67-8.62-.77-2.33-1.3-4.81-3.6-6.3a4.89,4.89,0,0,1-1-1.22l-.34-.14C233.69,228.2,233,228.45,232.14,228.48Zm-36.48-78.25.29-.17a5.71,5.71,0,0,1,.75,1.42c.19,1,.2,2,.34,2.94,0,.2.32.37.49.55a3.13,3.13,0,0,0,.31-.71,3,3,0,0,0-.08-.78,10.23,10.23,0,0,0-.31-2.16c-.4-1.14-1-2.21-1.44-3.34a7.75,7.75,0,0,1-.28-1.61c-.11-.78-.2-1.57-.3-2.37-.61.7-1.11,1.26-1.57,1.85a2.34,2.34,0,0,0-.41.82,4.65,4.65,0,0,0,1.58,4.16c.34.23.72.39,1.33.72ZM240.08,267.1l.37.17a5.23,5.23,0,0,0,.71-.86,6.81,6.81,0,0,0,1.19-3.66,29.82,29.82,0,0,1,.34-3.37c.06-.77-.32-1.07-1-.87C241.13,261.41,240.61,264.26,240.08,267.1ZM223.53,129.48c-.85,1.12-.79,1.34.09,2a2.46,2.46,0,0,1,.77,1.17,1.75,1.75,0,0,0,2,1.34c0-1.07-.78-1.49-1.5-1.85a1.71,1.71,0,0,1-1.08-1.59A5.19,5.19,0,0,0,223.53,129.48Zm3.24,11.31c0-.58.11-1.18-.13-1.55s-.85-.61-1.3-.9a3.26,3.26,0,0,0-.32,1.2C225.13,140.47,225.9,140.63,226.77,140.79Zm2.58,9.06c.43-1.34.31-1.46-1.37-1.39v1.23Zm-2.09,7.32c.39-1.14-.11-1.54-.74-1.77-.14-.06-.45.34-.68.53Zm4.28,3.15.06-.44-1.7-.26c0,.21-.15.51-.06.61A1.1,1.1,0,0,0,231.54,160.32Zm-6.06-22.86c0-.41.15-.92,0-1.14s-.74-.23-1.38-.39C224.47,136.71,224.21,137.59,225.48,137.46Zm3.17,8.29h.51c.1-.43.39-.92.26-1.27a5.73,5.73,0,0,0-1-1.36l-.43.27A1.45,1.45,0,0,1,228.65,145.75Zm-6.35,14.84-.31-.51-.63-.51a2.81,2.81,0,0,0-.54.83c0,.17.31.6.45.59A4.22,4.22,0,0,0,222.3,160.59Zm6.21-.28c-.21.32-.47.55-.43.69s.37.55.53.53.49-.32.73-.5Zm-3.1,1.6.12-.37c-.39-.68-.9-.83-1.8-.14Zm4.71-15.78c.76-.94.91-1.52-.3-2.1C229.93,144.79,230,145.32,230.12,146.13Zm-.38,15.53c0,.47,0,.93.07,1a5.3,5.3,0,0,0,1.21.24l.07-.3Zm-1.13-5.14-.43.22.46,1.1.59-.29Z"/><path d="M434.3,36.21a4.45,4.45,0,0,1-.9-.2c0-.85-.57-.82-1.14-.88-.8-.07-1.2-.44-1-1.31.15-.53.18-1.09.33-1.62.38-1.3,0-1.82-1.41-1.74h-.58c-.43-1.75-.67-1.93-2.4-2-.53,0-1.14-.08-1-1,0-.18-.45-.57-.75-.65-1.21-.33-1.33-.48-.9-1.87-1.08,0-2.1-.05-3.1,0-.55,0-1,.21-1.21-.54-.06-.23-.5-.41-.8-.5-.7-.19-1.44-.25-2.12-.48a1.06,1.06,0,0,1-.61-.78c0-.23.41-.59.7-.66.51-.13,1.08,0,1.6-.12a3.2,3.2,0,0,0,.87-.43c-.18-.35-.31-.95-.56-1A5.75,5.75,0,0,1,416.15,18a1.83,1.83,0,0,1,0-2.24c.11-.17.27-.42.22-.56a6.76,6.76,0,0,0-.56-1,5.43,5.43,0,0,0-.82.57,9.12,9.12,0,0,0-.68.92l-.61-.93c-.11-.16-.2-.33-.34-.55a1.73,1.73,0,0,0-.36.28c-.74,1.1-1.45,2.22-2.22,3.31-.12.17-.45.22-.7.29,0,0-.2-.18-.18-.21a2.31,2.31,0,0,1,.47-.6,2.18,2.18,0,0,0,.48-2.23c-.45-.64-1-.5-1.67-.25-1.53.62-2.28.34-3.07-1.37-.51-1.1-1-2.05-2.4-2.09-.15,0-.39-.34-.43-.55-.09-.49,0-1-.13-1.5a5.66,5.66,0,0,0-.6-1.27c-.08-.15-.25-.26-.31-.41a2,2,0,0,0-2.89-1.24c-1.09.4-1.09.4-1,1.28-1.53.07-2.45-.47-2.3-1.43,1,.39,1.33-.17,1.49-1.06a5.41,5.41,0,0,1,.62-1.29c-1.51-.33-.48,1.79-1.29,1.7-1.3-.91-2.3-1.66-3.36-2.33-.17-.1-.62.1-.87.27a11,11,0,0,0-1,.92l-.23-.16.35-1.49c-1.38-.41-2.36-1.16-1.52-2.81H434.3ZM403.49,7.3l-.05.62a9.41,9.41,0,0,0,1.19,0c.07,0,.11-.33.16-.51Z"/><path d="M3.54,0l.19,1.1-2.54.31v.5A6.56,6.56,0,0,1,2.45,2a4.88,4.88,0,0,1,1,.49c-.21.32-.38.85-.66.91A2,2,0,0,0,1.24,4.8c-.08.21-.37.34-.57.5C.55,5.08.33,4.85.33,4.64.4,3.09.52,1.54.62,0Z"/><path d="M399.39,9.6a5.53,5.53,0,0,1,.27-1.77c.18-.35.77-.47,1.18-.69.15.33.46.67.43,1C401.16,9.44,400.93,9.61,399.39,9.6Z"/><path d="M223.24,127.1c1.41-.83,1.49-.77,2.33.65.27.47.58,1.21,1.47.82l1.35,3.17c-.55.08-.74,0-.84-.79a2.21,2.21,0,0,0-1.13-1.74c-.37-.22-.84-.53-1-.9-.39-1.16-1.23-1.3-2.24-1.24Z"/><path d="M237.17,168.56l1.49-2.17c.28.35.33.63-.33,1.65C238.11,168.39,237.44,168.45,237.17,168.56Z"/><path d="M232.39,142.86l-1.49-.7,0-.29,1.56.13Z"/><path d="M416.07,21.28l-1-.81c.51-.12.89-.3,1-.21a2.46,2.46,0,0,1,.36.84Z"/><path d="M420.63,26c-.31.18-.49.37-.67.36s-.34-.21-.51-.34c.18-.17.34-.42.55-.48S420.33,25.77,420.63,26Z"/><path class="cls-1" d="M232.14,228.48c.87,0,1.55-.28,1.21-1.55l.34.14a4.89,4.89,0,0,0,1,1.22c2.3,1.49,2.83,4,3.6,6.3.95,2.85,1.88,5.72,2.67,8.62a7.74,7.74,0,0,1-.83,6.11c-.3.53-.63,1.05-1.12,1.86-.31-1.18-.5-2.1-.81-3-.81-2.34-1.75-4.64-2.51-7-.9-2.83-2.09-5.58-2.4-8.58a2.41,2.41,0,0,0-.3-.75c-.08-.15-.29-.25-.32-.4C232.45,230.49,232.3,229.52,232.14,228.48Z"/><path class="cls-1" d="M195.66,150.23l.7,1.32c-.61-.33-1-.49-1.33-.72a4.65,4.65,0,0,1-1.58-4.16,2.34,2.34,0,0,1,.41-.82c.46-.59,1-1.15,1.57-1.85.1.8.19,1.59.3,2.37A7.75,7.75,0,0,0,196,148c.44,1.13,1,2.2,1.44,3.34a10.23,10.23,0,0,1,.31,2.16,3,3,0,0,1,.08.78,3.13,3.13,0,0,1-.31.71c-.17-.18-.46-.35-.49-.55-.14-1-.15-2-.34-2.94a5.71,5.71,0,0,0-.75-1.42Z"/><path class="cls-1" d="M240.08,267.1c.53-2.84,1-5.69,1.59-8.59.7-.2,1.08.1,1,.87a29.82,29.82,0,0,0-.34,3.37,6.81,6.81,0,0,1-1.19,3.66,5.23,5.23,0,0,1-.71.86Z"/><path class="cls-1" d="M223.53,129.48a5.19,5.19,0,0,1,.32,1.08,1.71,1.71,0,0,0,1.08,1.59c.72.36,1.47.78,1.5,1.85a1.75,1.75,0,0,1-2-1.34,2.46,2.46,0,0,0-.77-1.17C222.74,130.82,222.68,130.6,223.53,129.48Z"/><path class="cls-1" d="M226.77,140.79c-.87-.16-1.64-.32-1.75-1.25a3.26,3.26,0,0,1,.32-1.2c.45.29,1,.49,1.3.9S226.74,140.21,226.77,140.79Z"/><path class="cls-1" d="M229.35,149.85l-1.37-.16v-1.23C229.66,148.39,229.78,148.51,229.35,149.85Z"/><path class="cls-1" d="M227.26,157.17l-1.42-1.24c.23-.19.54-.59.68-.53C227.15,155.63,227.65,156,227.26,157.17Z"/><path class="cls-1" d="M231.54,160.32a1.1,1.1,0,0,1-1.7-.09c-.09-.1,0-.4.06-.61l1.7.26Z"/><path class="cls-1" d="M225.48,137.46c-1.27.13-1-.75-1.42-1.53.64.16,1.16.14,1.38.39S225.48,137.05,225.48,137.46Z"/><path class="cls-1" d="M228.65,145.75a1.45,1.45,0,0,0-.7-2.36l.43-.27a5.73,5.73,0,0,1,1,1.36c.13.35-.16.84-.26,1.27Z"/><path class="cls-1" d="M222.3,160.59a4.22,4.22,0,0,1-1,.4c-.14,0-.48-.42-.45-.59a2.81,2.81,0,0,1,.54-.83l.63.51Z"/><path class="cls-1" d="M228.51,160.31l.83.72c-.24.18-.47.46-.73.5s-.46-.31-.53-.53S228.3,160.63,228.51,160.31Z"/><path class="cls-1" d="M225.41,161.91l-1.68-.51c.9-.69,1.41-.54,1.8.14Z"/><path class="cls-1" d="M230.12,146.13c-.12-.81-.19-1.34-.3-2.1C231,144.61,230.88,145.19,230.12,146.13Z"/><path class="cls-1" d="M229.74,161.66l1.35.92-.07.3a5.3,5.3,0,0,1-1.21-.24C229.7,162.59,229.76,162.13,229.74,161.66Z"/><path class="cls-1" d="M228.61,156.52l.62,1-.59.29-.46-1.1Z"/><path class="cls-1" d="M403.49,7.3l1.3.08c-.05.18-.09.5-.16.51a9.41,9.41,0,0,1-1.19,0Z"/></g></g></svg>