<?xml version="1.0" encoding="utf-8"?>
<!-- Generator: Adobe Illustrator 25.2.1, SVG Export Plug-In . SVG Version: 6.00 Build 0)  -->
<svg version="1.1" id="Layer_1" xmlns="http://www.w3.org/2000/svg" xmlns:xlink="http://www.w3.org/1999/xlink" x="0px" y="0px"
	 viewBox="0 0 700 700" style="enable-background:new 0 0 700 700;" xml:space="preserve">
<g>
	<path d="M541.2,339c0,18-14.6,32.6-32.6,32.6c-18,0-32.6-14.6-32.6-32.6s14.6-32.6,32.6-32.6C526.6,306.4,541.2,321,541.2,339"/>
	<path d="M508.6,375.3c-9.6,0-18.9-3.8-25.7-10.6c-6.8-6.8-10.6-16-10.6-25.7c0-9.6,3.8-18.9,10.6-25.7c6.8-6.8,16-10.6,25.7-10.6
		c9.6,0,18.9,3.8,25.7,10.6c6.8,6.8,10.6,16,10.6,25.7c0,9.6-3.8,18.8-10.6,25.7C527.5,371.5,518.3,375.3,508.6,375.3L508.6,375.3z
		 M508.6,310.1c-7.7,0-15,3-20.4,8.5c-5.4,5.4-8.5,12.8-8.5,20.4s3,15,8.5,20.4c5.4,5.4,12.8,8.5,20.4,8.5c7.7,0,15-3,20.4-8.5
		c5.4-5.4,8.5-12.8,8.5-20.4c0-7.7-3-15-8.5-20.4C523.6,313.2,516.3,310.1,508.6,310.1L508.6,310.1z"/>
	<path d="M447,339c0,27-21.9,48.9-48.9,48.9c-27,0-48.9-21.9-48.9-48.9s21.9-48.9,48.9-48.9C425.1,290.1,447,312,447,339"/>
	<path d="M320.2,339c0,36-29.2,65.2-65.2,65.2c-36,0-65.2-29.2-65.2-65.2s29.2-65.2,65.2-65.2C291,273.8,320.2,303,320.2,339"/>
</g>
</svg>
