<?xml version="1.0" encoding="utf-8"?>
<!-- Generator: Adobe Illustrator 25.2.1, SVG Export Plug-In . SVG Version: 6.00 Build 0)  -->
<svg version="1.1" id="Layer_1" xmlns="http://www.w3.org/2000/svg" xmlns:xlink="http://www.w3.org/1999/xlink" x="0px" y="0px"
	 viewBox="0 0 700 700" style="enable-background:new 0 0 700 700;" xml:space="preserve">
<g>
	<path d="M410.3,389.6v-56.1c0-21.6-8.9-42.2-24.2-57.6c-13.3-13-30.1-20.7-48.1-22.1v-11.2c0-4.1-3.2-7.4-7.4-7.4
		c-4.1,0-7.4,3.5-7.4,7.7v11.5c-39,4.4-69.4,37.8-69.4,77.6v57.6c-12.1,0.3-22.4,9.4-23.6,21.3c-0.6,6.5,1.5,13.3,5.9,18.3
		c4.4,5,10.9,7.7,17.4,7.7h47.5c1.5,15.6,14.8,28,30.7,28c15.9,0,29.2-12.4,30.7-28H410c6.5,0,13-3,17.4-7.7
		c4.4-5,6.8-11.5,5.9-18.3C432.7,399,422.4,389.9,410.3,389.6L410.3,389.6z M332.1,450.1c-8,0-14.5-5.6-15.9-13.3H348
		C346.5,444.5,340,450.1,332.1,450.1z M416.8,419.1c-1.8,1.8-4.1,3-6.5,3H253.8c-2.7,0-4.7-0.9-6.5-3c-1.8-1.8-2.4-4.4-2.4-6.8
		c0.3-4.4,4.7-8,9.4-8c7.7,0,14.2-6.2,14.2-14.2l0-58.2c0-34.2,28-62.9,62.3-63.5h1.2c16.2,0,31.9,6.5,43.7,18.3
		c12.7,12.4,19.8,29.5,19.8,46.9v56.7c0,7.7,6.2,14.2,14.2,14.2c5,0,9.2,3.5,9.4,8C419.5,415,418.6,417.3,416.8,419.1L416.8,419.1z"
		/>
	<path d="M371.9,321.1c-4.1,0-7.4,3.2-7.4,7.4v40.4c0,4.1,3.2,7.4,7.4,7.4s7.4-3.2,7.4-7.4v-40.4
		C379.3,324.3,376.1,321.1,371.9,321.1z"/>
</g>
</svg>
