<?xml version="1.0" encoding="utf-8"?>
<!-- Generator: Adobe Illustrator 25.2.1, SVG Export Plug-In . SVG Version: 6.00 Build 0)  -->
<svg version="1.1" id="Layer_1" xmlns="http://www.w3.org/2000/svg" xmlns:xlink="http://www.w3.org/1999/xlink" x="0px" y="0px"
	 viewBox="0 0 700 700" style="enable-background:new 0 0 700 700;" xml:space="preserve">
<path d="M442.6,275.5c15.6-5.6,30.8,8.8,26.6,24.5l-0.5,1.4l-63.1,176.3c-5.6,15.5-26,18.1-35.4,5.2l-0.9-1.4L345.7,443
	c-2.3-3.8-1.2-8.8,2.7-11.2c3.5-2.1,7.9-1.3,10.5,1.8l0.6,0.9l23.6,38.5c1.2,1.8,3.6,2.5,5.5,1.3c0.5-0.3,0.9-0.8,1.3-1.3l0.4-0.8
	l63-176.3c1-2.9-1.6-5.7-4.4-5.3l-0.8,0.3l-176.9,64.6c-2.1,0.8-3.1,3-2.3,5.1c0.3,0.6,0.6,1.2,1,1.6l0.8,0.5l62.5,34.1
	c1.3,0.6,2.9,0.6,4.2-0.1l0.6-0.5l51.8-53.1c3.1-3.3,8.3-3.3,11.5-0.1c2.9,2.9,3.3,7.3,0.9,10.7l-0.8,0.9l-51.8,53
	c-5.9,6-15,7.8-22.6,4.4l-1.6-0.8l-62.5-34.1c-14.8-8.1-13.7-29.3,1.2-36.2l1.6-0.6L442.6,275.5z"/>
</svg>
